<?xml version="1.0" encoding="UTF-8"?>
<svg width="73px" height="74px" viewBox="0 0 73 74" version="1.1" xmlns="http://www.w3.org/2000/svg" xmlns:xlink="http://www.w3.org/1999/xlink">
    <!-- Generator: Sketch 52.6 (67491) - http://www.bohemiancoding.com/sketch -->
    <title>Coveo search</title>
    <desc>Created with Sketch.</desc>
    <g id="Page-1" stroke="none" stroke-width="1" fill="none" fill-rule="evenodd">
        <g id="icons" transform="translate(-757.000000, -1024.000000)">
            <g id="Salesforce-and-Sitecore-Resources" transform="translate(70.000000, 702.000000)">
                <g id="Group-2" transform="translate(29.000000, 322.000000)">
                    <g id="Coveo-search" transform="translate(658.000000, 0.000000)">
                        <g>
                            <path d="M46.8864113,23.9460459 L44.1161163,23.9460459 C44.1161163,20.3802998 41.1482341,17.4795225 37.5,17.4795225 C33.8519696,17.4795225 30.8838837,20.3802998 30.8838837,23.9460459 L28.1135887,23.9460459 C28.1135887,18.8873054 32.3244371,14.7718649 37.5,14.7718649 C42.6757666,14.7718649 46.8864113,18.8873054 46.8864113,23.9460459 Z M62,24 L59.2299087,24 L59.2299087,21.1480004 C59.2299087,21.041685 59.1408926,20.9550798 59.0317104,20.9550798 L55.4447895,20.9550798 L55.1956666,19.9078534 C54.7454937,18.0142849 53.9846811,16.2186699 52.9342097,14.5711797 L52.352244,13.6583407 L54.8891009,11.1790422 C54.9660988,11.1035862 54.9660988,10.9809452 54.8888972,10.9054891 L50.841211,6.94952176 C50.793342,6.90273503 50.7387509,6.8929795 50.7014741,6.8929795 C50.6637899,6.8929795 50.6091988,6.90273503 50.5615335,6.94932267 L48.025084,9.4286212 L47.0911279,8.86001311 C45.4055256,7.83389052 43.5687793,7.09047923 41.6316098,6.65028578 L40.5601575,6.40699478 L40.5601575,2.90137457 C40.5601575,2.79446191 40.4711414,2.7074585 40.3617555,2.7074585 L34.6374297,2.7074585 C34.5286549,2.7074585 34.4398425,2.79446191 34.4398425,2.90137457 L34.4398425,6.40699478 L33.3683902,6.65028578 C31.431017,7.09047923 29.5938633,7.83408961 27.9080573,8.86080948 L26.9741012,9.42961666 L24.4382628,6.95011904 C24.3908012,6.9035314 24.3362101,6.89397496 24.2987296,6.89397496 C24.2612491,6.89397496 24.206658,6.9035314 24.1589927,6.95031813 L20.1111028,10.9064846 C20.0339012,10.9819407 20.0339012,11.1045816 20.1111028,11.1798386 L22.6479597,13.6593362 L22.0655867,14.5721752 C21.0155226,16.2186699 20.25471,18.0138867 19.8043334,19.9078534 L19.5552105,20.9550798 L15.9684933,20.9550798 C15.8591074,20.9550798 15.770295,21.0420832 15.770295,21.1489958 L15.770295,24 L13,24 L13,21.1489958 C13,19.5490887 14.3315749,18.2474222 15.9684933,18.2474222 L17.3850103,18.2474222 C17.8146097,16.793649 18.4067603,15.3966171 19.1539251,14.0734485 L18.1523413,13.0945109 C16.9949283,11.9632674 16.9949283,10.1230557 18.1523413,8.99201141 L22.2000274,5.03564585 C22.7604011,4.48794246 23.5057326,4.18611828 24.2987296,4.18611828 C25.0917265,4.18611828 25.8370581,4.48794246 26.3976354,5.03584494 L27.3986082,6.01478262 C28.7527936,5.28451144 30.1827547,4.70555053 31.6697512,4.28566451 L31.6697512,2.90137457 C31.6697512,1.30146748 33.0009187,0 34.6374297,0 L40.3617555,0 C41.9986739,0 43.3302488,1.30146748 43.3302488,2.90137457 L43.3302488,4.28566451 C44.8172453,4.70555053 46.246799,5.28411325 47.6007807,6.01398625 L48.6025683,5.03484948 C49.1629419,4.48714609 49.9082735,4.18532191 50.7014741,4.18532191 C51.4942674,4.18532191 52.2395989,4.48714609 52.8001763,5.03484948 L56.8478624,8.99101595 C58.0050717,10.1222594 58.0050717,11.9626702 56.8478624,13.0935154 L55.8460749,14.0728513 C56.5932397,15.396418 57.185594,16.7940471 57.6149897,18.2474222 L59.0317104,18.2474222 C60.6684251,18.2474222 62,19.5486906 62,21.1480004 L62,24 Z" id="Fill-4" fill="#1d4f76"></path>
                            <path d="M3.77520425,25.6068872 C3.1994856,25.6068872 2.73099882,26.0540833 2.73099882,26.6036381 L2.73099882,39.3963619 C2.73099882,39.9459167 3.1994856,40.3931128 3.77520425,40.3931128 L69.2247958,40.3931128 C69.8005144,40.3931128 70.2690012,39.9459167 70.2690012,39.3963619 L70.2690012,26.6036381 C70.2690012,26.0540833 69.8005144,25.6068872 69.2247958,25.6068872 L3.77520425,25.6068872 Z M69.2247958,43 L3.77520425,43 C1.69362088,43 0,41.3833466 0,39.3963619 L0,26.6036381 C0,24.6166534 1.69362088,23 3.77520425,23 L69.2247958,23 C71.3063791,23 73,24.6166534 73,26.6036381 L73,39.3963619 C73,41.3833466 71.3063791,43 69.2247958,43 Z" id="Fill-6" fill="#1d4f76"></path>
                            <polygon id="Fill-8" fill="#FFFFFF" points="30 65 22 65 22 62.1835361 27.4323272 62.1835361 27.4323272 49 30 49"></polygon>
                            <polygon id="Fill-10" fill="#FFFFFF" points="52 65 44 65 44 49 46.5676728 49 46.5676728 62.1835361 52 62.1835361"></polygon>
                            <polygon id="Fill-12" fill="#FFFFFF" points="36 66 38 66 38 49 36 49"></polygon>
                            <path d="M18,60.8676254 C16.824224,60.8676254 15.8675354,61.8242736 15.8675354,63 C15.8675354,64.1757264 16.824224,65.1323746 18,65.1323746 C19.175776,65.1323746 20.1324646,64.1757264 20.1324646,63 C20.1324646,61.8242736 19.175776,60.8676254 18,60.8676254 M18,68 C15.2429572,68 13,65.7569266 13,63 C13,60.2430734 15.2429572,58 18,58 C20.7570428,58 23,60.2430734 23,63 C23,65.7569266 20.7570428,68 18,68" id="Fill-14" fill="#FFFFFF"></path>
                            <path d="M56,60.8676254 C54.824224,60.8676254 53.8675354,61.8242736 53.8675354,63 C53.8675354,64.1757264 54.824224,65.1323746 56,65.1323746 C57.175776,65.1323746 58.1324646,64.1757264 58.1324646,63 C58.1324646,61.8242736 57.175776,60.8676254 56,60.8676254 M56,68 C53.2429572,68 51,65.7569266 51,63 C51,60.2430734 53.2429572,58 56,58 C58.7570428,58 61,60.2430734 61,63 C61,65.7569266 58.7570428,68 56,68" id="Fill-15" fill="#FFFFFF"></path>
                            <path d="M37,66.8676254 C35.824224,66.8676254 34.8675354,67.8242736 34.8675354,69 C34.8675354,70.1757264 35.824224,71.1323746 37,71.1323746 C38.175776,71.1323746 39.1324646,70.1757264 39.1324646,69 C39.1324646,67.8242736 38.175776,66.8676254 37,66.8676254 M37,74 C34.2429572,74 32,71.7569266 32,69 C32,66.2430734 34.2429572,64 37,64 C39.7570428,64 42,66.2430734 42,69 C42,71.7569266 39.7570428,74 37,74" id="Fill-16" fill="#FFFFFF"></path>
                            <path d="M60.1309435,32.0263802 C59.9733007,32.3280502 59.8933092,32.6556749 59.8933092,32.9998936 C59.8933092,34.1616849 60.8383151,35.1066908 62.0001064,35.1066908 C63.1616849,35.1066908 64.1066908,34.1616849 64.1066908,32.9998936 C64.1066908,31.8383151 63.1616849,30.8930965 62.0001064,30.8930965 C61.2125306,30.8930965 60.4962238,31.3273056 60.1309435,32.0263802 M62.0001064,38 C59.2429529,38 57,35.7570471 57,32.9998936 C57,32.1957239 57.1959366,31.3955962 57.5667482,30.68631 L57.5667482,30.6860972 C58.4328263,29.0292522 60.1315817,28 62.0001064,28 C64.7570471,28 67,30.2429529 67,32.9998936 C67,35.7570471 64.7570471,38 62.0001064,38" id="Fill-17" fill="#1d4f76"></path>
                            <polygon id="Fill-18" fill="#1d4f76" points="65.8137798 39 63 36.1352601 65.1859952 34 68 36.8645155"></polygon>
                            <polygon id="Fill-19" fill="#1d4f76" points="30 65 22 65 22 62.1835361 27.4323272 62.1835361 27.4323272 49 30 49"></polygon>
                            <polygon id="Fill-20" fill="#1d4f76" points="52 65 44 65 44 49 46.5676728 49 46.5676728 62.1835361 52 62.1835361"></polygon>
                            <polygon id="Fill-21" fill="#1d4f76" points="36 66 38 66 38 49 36 49"></polygon>
                            <path d="M18,60.8676254 C16.824224,60.8676254 15.8675354,61.8242736 15.8675354,63 C15.8675354,64.1757264 16.824224,65.1323746 18,65.1323746 C19.175776,65.1323746 20.1324646,64.1757264 20.1324646,63 C20.1324646,61.8242736 19.175776,60.8676254 18,60.8676254 M18,68 C15.2429572,68 13,65.7569266 13,63 C13,60.2430734 15.2429572,58 18,58 C20.7570428,58 23,60.2430734 23,63 C23,65.7569266 20.7570428,68 18,68" id="Fill-22" fill="#1d4f76"></path>
                            <path d="M56,60.8676254 C54.824224,60.8676254 53.8675354,61.8242736 53.8675354,63 C53.8675354,64.1757264 54.824224,65.1323746 56,65.1323746 C57.175776,65.1323746 58.1324646,64.1757264 58.1324646,63 C58.1324646,61.8242736 57.175776,60.8676254 56,60.8676254 M56,68 C53.2429572,68 51,65.7569266 51,63 C51,60.2430734 53.2429572,58 56,58 C58.7570428,58 61,60.2430734 61,63 C61,65.7569266 58.7570428,68 56,68" id="Fill-23" fill="#1d4f76"></path>
                            <path d="M37,66.8676254 C35.824224,66.8676254 34.8675354,67.8242736 34.8675354,69 C34.8675354,70.1757264 35.824224,71.1323746 37,71.1323746 C38.175776,71.1323746 39.1324646,70.1757264 39.1324646,69 C39.1324646,67.8242736 38.175776,66.8676254 37,66.8676254 M37,74 C34.2429572,74 32,71.7569266 32,69 C32,66.2430734 34.2429572,64 37,64 C39.7570428,64 42,66.2430734 42,69 C42,71.7569266 39.7570428,74 37,74" id="Fill-24" fill="#1d4f76"></path>
                        </g>
                    </g>
                </g>
            </g>
        </g>
    </g>
</svg>