<?xml version="1.0" encoding="UTF-8" standalone="no"?>
<svg width="25px" height="32px" viewBox="0 0 25 32" version="1.1" xmlns="http://www.w3.org/2000/svg" xmlns:xlink="http://www.w3.org/1999/xlink">
    <!-- Generator: Sketch 40.3 (33839) - http://www.bohemiancoding.com/sketch -->
    <title>Sigle connect vecteurs</title>
    <desc>Created with Sketch.</desc>
    <defs></defs>
    <g id="Index-Less" stroke="none" stroke-width="1" fill="none" fill-rule="evenodd">
        <g id="Salesforce-for-salesforce-indexless-plan" transform="translate(-885.000000, -981.000000)">
            <g id="Modale" transform="translate(448.000000, 342.000000)">
                <g id="Contact-Us" transform="translate(392.000000, 615.000000)">
                    <g id="Sigle-connect-vecteurs" transform="translate(45.000000, 24.000000)">
                        <path d="M21.2925427,31.9995503 C21.1137187,31.9995503 20.9366829,31.9248798 20.8198513,31.7822257 L17.8776004,28.2119719 C17.5581015,28.5279285 15.647069,30.120528 14.9413103,30.4554309 C13.9691039,30.9168278 12.8782775,31.1631291 11.7862589,31.1692587 C10.6799344,31.1631291 9.58612764,30.9168278 8.61511332,30.4554309 C7.92783308,30.1300012 6.09250277,28.6053852 5.62934861,28.2164298 L2.68948207,31.7822257 C2.48800703,32.0262979 2.11426487,32.0725491 1.85377791,31.8836438 C1.59269487,31.695853 1.54441239,31.3459046 1.74529135,31.1023896 L4.71257758,27.502602 C4.91286046,27.2590869 5.19897886,27.1103031 5.51728557,27.082441 C5.83380405,27.0517927 6.14078525,27.1498674 6.38219765,27.3504747 C7.22207437,28.0576157 8.71346652,29.2529012 9.15456572,29.4618672 C9.96165803,29.8446929 10.8718722,30.0497582 11.7862589,30.0547734 C12.6869358,30.0497582 13.5941695,29.8446929 14.4012619,29.4618672 C14.8393807,29.2540157 16.3122943,28.0765619 17.136673,27.3827948 C17.3810658,27.1816302 17.7011607,27.0829982 18.0152949,27.1119749 C18.3312173,27.139837 18.6250847,27.2930787 18.8217911,27.5315786 L21.764042,31.1023896 C21.9649209,31.3459046 21.9166385,31.695853 21.6555554,31.8836438 C21.5476649,31.962215 21.4195077,31.9995503 21.2925427,31.9995503" id="Fill-5" fill="#1D4F76"></path>
                        <path d="M3.98131067,19.1613759 C4.05472667,20.3375109 4.36237467,21.446404 4.88386133,22.3955972 C6.12144533,24.6470044 8.56748,26.823965 9.47702267,27.3114697 C10.182632,27.6903064 10.9750587,27.8926329 11.776808,27.8974359 C12.5704,27.8926329 13.3628267,27.6903064 14.068436,27.3114697 C14.979144,26.8233646 17.4251787,24.6458036 18.6615973,22.3949969 C19.1982333,21.4181864 19.5163693,20.3104941 19.593864,19.1625766 C20.4509667,18.8930081 21.0773333,18.0740963 21.0773333,17.1104941 L21.0773333,14.5607004 C21.0773333,13.6115072 20.4649507,12.7997999 19.62358,12.520025 L19.62358,10.1143215 C19.62358,6.34696685 16.6298387,3.28205128 12.9508813,3.28205128 C11.505868,3.28205128 10.0946493,3.76595372 8.94446533,4.64970607 C8.68168267,4.60647905 8.42006533,4.58426517 8.161944,4.58426517 C5.601124,4.58426517 3.94635067,6.5931207 3.94635067,9.70126329 C3.94809867,11.2010006 3.949264,12.0325203 3.95042933,12.4948093 C3.073516,12.7625766 2.432,13.5838899 2.432,14.5480926 L2.432,17.0972858 C2.432,18.0764978 3.0875,18.9044153 3.98131067,19.1613759" id="Fill-7" fill="#F6F7F8"></path>
                        <path d="M3.98131067,19.1613759 C4.05472667,20.3375109 4.36237467,21.446404 4.88386133,22.3955972 C6.12144533,24.6470044 8.56748,26.823965 9.47702267,27.3114697 C10.182632,27.6903064 10.9750587,27.8926329 11.776808,27.8974359 C12.5704,27.8926329 13.3628267,27.6903064 14.068436,27.3114697 C14.979144,26.8233646 17.4251787,24.6458036 18.6615973,22.3949969 C19.1982333,21.4181864 19.5163693,20.3104941 19.593864,19.1625766 C20.4509667,18.8930081 21.0773333,18.0740963 21.0773333,17.1104941 L21.0773333,14.5607004 C21.0773333,13.6115072 20.4649507,12.7997999 19.62358,12.520025 L19.62358,10.1143215 C19.62358,6.34696685 16.6298387,3.28205128 12.9508813,3.28205128 C11.505868,3.28205128 10.0946493,3.76595372 8.94446533,4.64970607 C8.68168267,4.60647905 8.42006533,4.58426517 8.161944,4.58426517 C5.601124,4.58426517 3.94635067,6.5931207 3.94635067,9.70126329 C3.94809867,11.2010006 3.949264,12.0325203 3.95042933,12.4948093 C3.073516,12.7625766 2.432,13.5838899 2.432,14.5480926 L2.432,17.0972858 C2.432,18.0764978 3.0875,18.9044153 3.98131067,19.1613759" id="Fill-9" fill="#F6F7F8"></path>
                        <path d="M4.08335502,19.304142 L4.05538702,18.8566469 L3.63027342,18.7367258 C2.92485831,18.5366469 2.432,17.8998028 2.432,17.1745957 L2.432,14.4946746 C2.432,13.7820907 2.91429262,13.1496647 3.606656,12.9407495 L4.05227947,12.8069428 L4.05165796,12.3348323 C4.05041493,11.7850888 4.04917191,10.8396055 4.04730738,9.39865878 C4.04730738,6.45932939 5.5588224,4.65104536 7.92242916,4.65104536 C8.16419698,4.65104536 8.41093689,4.6712426 8.65891982,4.71163708 L8.91871147,4.75392505 L9.12878222,4.59487179 C10.2499883,3.74532544 11.6253924,3.28205128 13.030629,3.28205128 C16.613019,3.28205128 19.5266631,6.222643 19.5266631,9.83353057 L19.5266631,12.3626036 L19.5266631,12.8220907 L19.9573703,12.9628402 C20.6180366,13.1793294 21.0773333,13.8041815 21.0773333,14.507929 L21.0773333,17.1884813 C21.0773333,17.9035897 20.6074709,18.5334911 19.9349959,18.7417751 L19.5260416,18.8686391 L19.4962091,19.3016174 C19.4197632,20.4175148 19.1065216,21.4904931 18.5813447,22.4334517 C17.5098596,24.3559763 15.1244999,26.7247337 13.9361707,27.3527416 C13.2705323,27.7042998 12.5222329,27.8930178 11.774555,27.8974359 C11.0268772,27.8930178 10.2785778,27.704931 9.61231787,27.3527416 C8.42461013,26.7253649 6.03925049,24.3566075 4.96652231,22.4334517 C4.45874773,21.5226824 4.15545031,20.4503353 4.08335502,19.304142" id="Fill-11" fill="#F6F7F8"></path>
                        <path d="M12.9508813,3.28205128 C11.505868,3.28205128 10.0946493,3.76595372 8.945048,4.64970607 C8.68226533,4.60647905 8.42006533,4.58426517 8.161944,4.58426517 C5.601124,4.58426517 3.94635067,6.5931207 3.94635067,9.70126329 C3.94868133,11.2010006 3.94984667,12.0325203 3.95042933,12.4942089 C3.073516,12.7625766 2.432,13.5832896 2.432,14.5480926 L2.432,17.0972858 C2.432,18.0764978 3.08808267,18.9044153 3.98131067,19.1613759 C4.05472667,20.3375109 4.36295733,21.446404 4.88386133,22.3955972 C6.12144533,24.646404 8.56748,26.823965 9.47760533,27.3114697 C10.1832147,27.6903064 10.9750587,27.8926329 11.776808,27.8974359 C12.5704,27.8926329 13.3628267,27.6903064 14.068436,27.3114697 C14.979144,26.8233646 17.4257613,24.6458036 18.66218,22.3949969 C19.1982333,21.4181864 19.5163693,20.3104941 19.593864,19.1625766 C20.4515493,18.8930081 21.0773333,18.0740963 21.0773333,17.1098937 L21.0773333,14.5607004 C21.0773333,13.6115072 20.4649507,12.7997999 19.62358,12.5194246 L19.62358,10.1143215 C19.62358,6.34696685 16.6304213,3.28205128 12.9508813,3.28205128 M12.9508813,4.48280175 C15.98774,4.48280175 18.4582467,7.00918074 18.4582467,10.1143215 L18.4582467,12.5194246 L18.4582467,13.393571 L19.2658227,13.6625391 C19.646304,13.7886179 19.912,14.158449 19.912,14.5607004 L19.912,17.1098937 C19.912,17.5205503 19.64106,17.8921826 19.2535867,18.0140588 L18.4867973,18.2548093 L18.431444,19.0791245 C18.3661853,20.0469293 18.0952453,20.9889181 17.6477573,21.8036273 C16.5168013,23.8623139 14.220512,25.8765729 13.5306347,26.246404 C12.988172,26.537586 12.3792853,26.6930832 11.7838,26.6966854 C11.1690867,26.6930832 10.5578693,26.537586 10.014824,26.246404 C9.326112,25.8771732 7.02982267,23.8629143 5.898284,21.8042276 C5.46711067,21.0189368 5.206076,20.0781488 5.14431333,19.0845278 L5.09129067,18.2337961 L4.29420267,18.0044528 C3.88400533,17.8867792 3.59733333,17.5133458 3.59733333,17.0972858 L3.59733333,14.5480926 C3.59733333,14.1398374 3.87876133,13.7688055 4.281384,13.6457286 L5.11751067,13.3905691 L5.11576267,12.4924078 L5.111684,9.70126329 C5.111684,7.24933083 6.25196267,5.78501563 8.161944,5.78501563 C8.35772,5.78501563 8.55874,5.80182614 8.76092533,5.83544715 L9.24686933,5.91529706 L9.64133467,5.61210757 C10.5893333,4.88385241 11.764572,4.48280175 12.9508813,4.48280175" id="Fill-13" fill="#1D4F76"></path>
                        <path d="M22.5404878,12.8891203 L22.5404878,10.8061694 C22.5404878,4.84803075 17.7506341,0 11.8634146,0 C5.97619512,0 1.18634146,4.84803075 1.18634146,10.8061694 L1.18634146,13.1870273 C0.52673561,13.1870273 0,13.7217013 0,14.3810526 L0,18.5865155 C0,19.2410716 0.530887805,19.7805409 1.18634146,19.7805409 C1.84594732,19.7805409 2.37268293,19.2458669 2.37268293,18.5865155 L2.37268293,10.8061694 C2.37268293,5.50858093 6.63046244,1.19882066 11.8634146,1.19882066 C17.0963668,1.19882066 21.3541463,5.50858093 21.3541463,10.8061694 L21.3541463,19.7643568 C20.7752117,21.0135279 19.841561,22.1464135 18.5798868,22.7775925 L13.9555278,22.7775925 C13.4139629,22.7775925 12.969678,23.2733049 13.0622127,23.84754 C13.1345795,24.301893 13.5586966,24.6153846 14.0142517,24.6153846 L15.3809171,24.6153846 C15.731481,24.6153846 16.0156098,24.3282671 16.0156098,23.9740156 L18.43456,23.9764132 C18.6753873,23.9764132 18.8740995,23.8163706 18.9464663,23.5969865 C20.6375961,22.7662037 21.8049561,21.2059387 22.4224468,19.5359815 C23.5316761,19.0156933 24.32,17.7131747 24.32,16.1840789 C24.32,14.7095295 23.5874341,13.4441743 22.5404878,12.8891203 Z" id="Fill-15" fill="#F58020"></path>
                    </g>
                </g>
            </g>
        </g>
    </g>
</svg>