<svg viewBox="0 0 31 65" xmlns="http://www.w3.org/2000/svg"><g fill="none" fill-rule="evenodd"><path d="m25.588 36.961c-.31-.404-.869-.455-1.245-.122l-8.842 4.761-8.824-4.812c-.37-.33-.916-.278-1.225.124l-4.539 5.906c0 0 4.695 4.797 14.631 4.797 9.936 0 14.545-4.797 14.545-4.797l-4.5-5.858" fill="#fff"/><g fill="#296896"><path d="m29.366 43.521l-4.748-6.04.912-1.829 5.281 6.727c.307.407.233.992-.166 1.306-.165.131-.361.194-.555.194-.274 0-.544-.125-.723-.363"/><path d="m6.382 37.486l-4.748 6.04c-.308.408-.88.485-1.278.17-.399-.314-.473-.899-.166-1.306l5.281-6.727.912 1.829"/></g><path d="m4.246 24.12l-.041-.648-.624-.174c-1.035-.29-1.758-1.212-1.758-2.263v-3.882c0-1.032.708-1.948 1.723-2.251l.654-.194v-.684c-.002-.796-.004-2.166-.006-4.253 0-4.258 2.217-6.877 5.685-6.877.355 0 .717.029 1.08.088l.381.061.308-.23c1.645-1.231 3.663-1.902 5.724-1.902 5.255 0 9.53 4.26 9.53 9.49v3.664.666l.632.204c.969.314 1.643 1.219 1.643 2.238v3.883c0 1.036-.689 1.948-1.676 2.25l-.6.184-.044.627c-.112 1.616-.572 3.171-1.342 4.537-1.572 2.785-5.071 6.216-6.815 7.126-.976.509-2.074.783-3.171.789-1.097-.006-2.195-.279-3.172-.789-1.742-.909-5.242-4.34-6.815-7.126-.745-1.319-1.19-2.873-1.296-4.533" fill="#fff"/><path d="m17.372 0c-2.261 0-4.469.737-6.268 2.083-.411-.066-.822-.1-1.225-.1-4.01 0-6.597 3.059-6.597 7.792.004 2.284.005 3.55.006 4.253-1.372.409-2.376 1.659-2.376 3.128v3.882c0 1.491 1.027 2.752 2.424 3.143.115 1.791.597 3.48 1.412 4.925 1.937 3.428 5.764 6.744 7.188 7.486 1.104.577 2.343.885 3.598.892 1.242-.007 2.482-.315 3.586-.892 1.425-.743 5.254-4.059 7.188-7.487.839-1.488 1.337-3.174 1.458-4.923 1.342-.411 2.321-1.658 2.321-3.126v-3.882c0-1.445-.958-2.682-2.275-3.109v-3.663c0-5.737-4.684-10.405-10.442-10.405m0 1.829c4.752 0 8.618 3.847 8.618 8.576v3.663 1.331l1.264.41c.595.192 1.011.755 1.011 1.368v3.882c0 .625-.424 1.191-1.03 1.377l-1.2.367-.087 1.255c-.102 1.474-.526 2.908-1.226 4.149-1.77 3.135-5.363 6.203-6.443 6.766-.849.443-1.802.68-2.733.686-.962-.005-1.918-.242-2.768-.686-1.078-.562-4.671-3.63-6.442-6.765-.675-1.196-1.083-2.629-1.18-4.142l-.083-1.296-1.247-.349c-.642-.179-1.09-.748-1.09-1.381v-3.882c0-.622.44-1.187 1.07-1.374l1.308-.389-.003-1.368-.006-4.251c0-3.734 1.784-5.964 4.773-5.964.306 0 .621.026.937.077l.76.122.617-.462c1.483-1.109 3.322-1.72 5.179-1.72" fill="#296896"/><g stroke="#f58020" stroke-width="2"><circle fill="#f1f3f4" cx="9.5" cy="20.5" r="3.5"/><path d="m18 21.5c0-1.381-1.119-2.5-2.5-2.5-1.381 0-2.5 1.119-2.5 2.5"/><circle fill="#f1f3f4" cx="21.5" cy="20.5" r="3.5"/></g><g transform="translate(6.382 36.571)" stroke="#296896" stroke-width="1.5" fill="#fff" stroke-linecap="round" stroke-linejoin="round"><path d="M7.206 10.971 5.471 24.2 9.118 27.383 12.765 24.2 11.03 10.971"/><path d="M0 0 5.796 8.229 9.118 5.173 0 0"/><path d="M18.235 0 12.439 8.229 9.118 5.173 18.235 0"/><path d="m9.291 12.91c-.048.048-.11.072-.173.072-.063 0-.125-.024-.173-.072l-1.701-1.705-1.701-1.706c-.048-.048-.072-.111-.072-.174 0-.062.024-.125.072-.173l1.701-1.705 1.701-1.706c.048-.048.11-.072.173-.072.063 0 .125.025.173.072l1.701 1.706 1.701 1.705c.048.048.072.111.072.174 0 .063-.024.125-.072.174l-1.701 1.705-1.701 1.705"/></g></g></svg>