<svg xmlns="http://www.w3.org/2000/svg" viewBox="0 0 54 48" enable-background="new 0 0 54 48"><g fill="#456892"><path d="m49 2c1.7 0 3 1.3 3 3v29c0 1.7-1.3 3-3 3h-27-.8l-.6.6-7.6 7.5v-6.1-2h-2-6c-1.7 0-3-1.3-3-3v-29c0-1.7 1.3-3 3-3h44m0-2h-44c-2.8 0-5 2.2-5 5v29c0 2.8 2.2 5 5 5h6v7c0 1.4.5 2.1 1.2 2.1.5 0 1-.3 1.6-.9l8.2-8.2h27c2.8 0 5-2.2 5-5v-29c0-2.8-2.2-5-5-5z"/><g fill-rule="evenodd"><path d="m6 13h18v2h-18z"/><path d="m8 19h14v2h-14z"/><path d="m7 25h16v2h-16z"/></g></g><g fill="#da7f2d" fill-rule="evenodd"><path d="m38 31c-6.1 0-11-4.9-11-11s4.9-11 11-11 11 4.9 11 11-4.9 11-11 11m0-20c-5 0-9 4-9 9s4 9 9 9 9-4 9-9-4-9-9-9"/><path d="m37 26h2v-2h-2v2m1-12.3c-2.2 0-4 1.8-4 4h2c0-1.1.9-2 2-2s2 .9 2 2c0 2-3 1.8-3 5h2c0-2.2 3-2.5 3-5 0-2.3-1.8-4-4-4"/></g></svg>