<svg viewBox="0 0 54 50" xmlns="http://www.w3.org/2000/svg"><g fill="none" fill-rule="evenodd"><path d="m52 28.5v-25c0-.8-.7-1.5-1.5-1.5h-47c-.8 0-1.5.7-1.5 1.5v32c0 .8.7 1.5 1.5 1.5h47c.8 0 1.5-.7 1.5-1.5v-7" fill="#fff"/><g transform="translate(26 4)" fill="#f47f1f"><path d="m22.8 24.5c0-1.5-.6-3-1.6-4.1-1.1-1.1-2.5-1.7-3.9-1.7h-1.7c-.5 0-.9.3-1 .8l-3.2 1-3.2-1c-.1-.4-.5-.8-1-.8h-1.7c-1.5 0-2.9.6-3.9 1.7-1.1 1.1-1.6 8.6-1.6 8.6h2c0 0 .7-6.8 1-7.1.7-.7 1.6-1.1 2.5-1.1h.9c.1.2.3.4.6.5l4.2 1.2h.3.3l4.2-1.2c.3-.1.5-.3.6-.5h.9c.9 0 1.8.4 2.5 1.1.7.7 1.1 1.7 1.1 2.8l.2 4.5 2-.2-.5-4.5"/><path d="m5.5 12.2c.1.8.3 1.5.6 2.1.8 1.6 2.6 3.2 3.4 3.7.6.3 1.2.5 1.9.5.6 0 1.3-.2 1.8-.5.8-.4 2.5-2.1 3.4-3.7.4-.7.6-1.4.7-2.1.6-.3 1-1 1-1.8v-1.8c0-.8-.4-1.4-1-1.8v-1.3c0-2.9-2.3-5.3-5.1-5.3-1 0-2 .3-2.9.9-2.2-.2-3.8 1.5-3.8 4.1v1.7c-.6.4-1 1-1 1.8v1.8c-.1.7.4 1.4 1 1.7m3.4-9.1c.1 0 .3 0 .4.1.3.1.6 0 .9-.2.6-.5 1.2-.7 2-.7 1.7 0 3.1 1.5 3.1 3.3v2.1c0 .5.4 1 1 1v1.8c-.6 0-1 .4-1 1 0 .7-.2 1.4-.5 2-.7 1.3-2.2 2.7-2.6 2.9-.3.2-.6.2-.9.2-.3 0-.6-.1-.9-.2-.4-.2-1.9-1.5-2.6-2.9-.3-.6-.5-1.2-.5-2 0-.4-.3-.8-.6-.9-.1-.1-.3-.1-.4-.1v-1.8c.5 0 1-.5 1-1v-2.4c.1-.8.3-2.2 1.6-2.2"/></g><g fill="#296896"><path d="m51.3 0h-48.6c-1.5 0-2.7 1.2-2.7 2.7v33.5c0 1.6 1.2 2.8 2.7 2.8h24.3v9h-13v2h29v-2h-14v-9h22.3c1.5 0 2.7-1.2 2.7-2.7v-33.6c0-1.5-1.2-2.7-2.7-2.7m-49.3 3.5c0-.8.7-1.5 1.5-1.5h47c.8 0 1.5.7 1.5 1.5v28.5h-50v-28.5m50 32c0 .8-.7 1.5-1.5 1.5h-47c-.8 0-1.5-.7-1.5-1.5v-1.5h50v1.5"/><path d="m6 13h18v2h-18z"/><path d="m8 19h14v2h-14z"/><path d="m7 25h16v2h-16z"/></g></g></svg>